# AST/ASF file generated using VICON BodyLanguage
# -----------------------------------------------
:version 1.10
:name VICON
:units
  mass 1.0
  length 0.45
  angle deg
:documentation
   .ast/.asf automatically generated from VICON data using
   VICON BodyBuilder and BodyLanguage model FoxedUp or BRILLIANT.MOD
:root
   order TX TY TZ RX RY RZ
   axis XYZ
   position 0 0 0  
   orientation 0 0 0 
:bonedata
  begin
     id 1 
     name lhipjoint
     direction 0.682418 -0.694059 0.22932 
     length 2.25561 
     axis 0 0 0  XYZ
  end
  begin
     id 2 
     name lfemur
     direction 0.34202 -0.939693 0  
     length 6.96448  
     axis 0 0 20  XYZ
    dof rx ry rz
    limits (-160.0 20.0)
           (-70.0 70.0)
           (-60.0 70.0)
  end
  begin
     id 3 
     name ltibia
     direction 0.34202 -0.939693 0   
     length 6.88553   
     axis 0 0 20   XYZ
    dof rx
    limits (-10.0 170.0)
  end
  begin
     id 4 
     name lfoot
     direction 0.0723587 -0.198804 0.977364   
     length 1.88518   
     axis -90 7.62852e-016 20   XYZ
    dof rx rz
    limits (-45.0 90.0)
           (-70.0 20.0)
  end
  begin
     id 5 
     name ltoes
     direction 1.53558e-011 -4.21962e-011 1   
     length 0.952124   
     axis -90 7.62852e-016 20   XYZ
    dof rx
    limits (-90.0 20.0)
  end
  begin
     id 6 
     name rhipjoint
     direction -0.657603 -0.71533 0.236348   
     length 2.18854  
     axis 0 0 0  XYZ 
  end
  begin
     id 7 
     name rfemur
     direction -0.34202 -0.939693 0   
     length 6.86686   
     axis 0 0 -20   XYZ
    dof rx ry rz
    limits (-160.0 20.0)
           (-70.0 70.0)
           (-70.0 60.0)
  end
  begin
     id 8 
     name rtibia
     direction -0.34202 -0.939693 0   
     length 6.59503   
     axis 0 0 -20   XYZ
    dof rx
    limits (-10.0 170.0)
 end
 begin
     id 9 
     name rfoot
     direction -0.101977 -0.280179 0.954516   
     length 1.93723  
     axis -90 -7.62852e-016 -20   XYZ
    dof rx rz
    limits (-45.0 90.0)
           (-20.0 70.0)
  end
  begin
     id 10 
     name rtoes
     direction -1.53564e-011 -4.21897e-011 1   
     length 0.970315   
     axis -90 -7.62852e-016 -20   XYZ
    dof rx
    limits (-90.0 20.0)
  end
  begin
     id 11 
     name lowerback
     direction -0.0339559 0.999421 -0.00235966   
     length 1.88543   
     axis 0 0 0   XYZ
    dof rx ry rz
    limits (-20.0 45.0)
           (-30.0 30.0)
           (-30.0 30.0)
  end
  begin
     id 12 
     name upperback
     direction 0.00401003 0.999739 0.0224689   
     length 1.8856   
     axis 0 0 0   XYZ
    dof rx ry rz
    limits (-20.0 45.0)
           (-30.0 30.0)
           (-30.0 30.0)
  end
  begin
     id 13 
     name thorax
     direction 0.0198619 0.999546 0.0226536   
     length 1.88352   
     axis 0 0 0   XYZ
    dof rx ry rz
    limits (-20.0 45.0)
           (-30.0 30.0)
           (-30.0 30.0)
  end
  begin
     id 14 
     name lowerneck
     direction -0.0461848 0.998632 0.0245198   
     length 1.34895   
     axis 0 0 0   XYZ
    dof rx ry rz
    limits (-20.0 45.0)
           (-30.0 30.0)
           (-30.0 30.0)
  end
  begin
     id 15 
     name upperneck
     direction -0.0180627 0.994724 -0.100984   
     length 1.35214   
     axis 0 0 0   XYZ
    dof rx ry rz
    limits (-20.0 45.0)
           (-30.0 30.0)
           (-30.0 30.0)
  end
  begin
     id 16
     name head
     direction -0.00374772 0.999293 -0.037403  
     length 1.3568  
     axis 0 0 0   XYZ
    dof rx ry rz
    limits (-20.0 45.0)
           (-30.0 30.0)
           (-30.0 30.0)
  end
  begin
     id 17 
     name lclavicle
     direction 0.971773 0.191119 0.138311  
     length 2.84954  
     axis 0 0 0   XYZ
    dof ry rz
    limits (-20.0 10.0)
           (0.0 20.0)
  end
  begin
     id 18 
     name lhumerus
     direction 1 -4.4897e-011 -2.43761e-027   
     length 4.40919   
     axis 180 -30 -90   XYZ
    dof rx ry rz
    limits (-60.0 90.0)
           (-90.0 90.0)
           (-90.0 90.0)
  end
  begin
     id 19
     name lradius
     direction 1 -4.4896e-011 -9.1621e-027   
     length 3.03857   
     axis 180 -30 -90   XYZ
    dof rx
    limits (-10.0 170.0)
  end
  begin
     id 20
     name lwrist
     direction 1 -4.4896e-011 -1.41363e-026   
     length 1.51928   
     axis 1.07133e-014 90 90   XYZ
    dof ry
    limits (-180.0 0.0)
 end
  begin
     id 21 
     name lhand
     direction 1 -4.48978e-011 -2.82725e-026   
     length 0.523208   
     axis 1.80403e-014 90 90   XYZ
    dof rx rz
    limits (-90.0 90.0)
           (-45.0 45.0)
  end
  begin
     id 22 
     name lfingers
     direction 1 -4.48977e-011 -5.6545e-026   
     length 0.421824   
     axis 3.60806e-014 90 90   XYZ
    dof rx
    limits (0.0 90.0)
  end
  begin
     id 23
     name lthumb
     direction 0.707107 -6.34962e-011 0.707107   
     length 0.605657   
     axis -90 45 2.85299e-015   XYZ
    dof rx rz
    limits (-45.0 45.0)
           (-45.0 45.0)
  end
  begin
     id 24 
     name rclavicle
     direction -0.957247 0.24311 0.156766   
     length 3.12406  
     axis 0 0 0   XYZ 
    dof ry rz
    limits (-10.0 20.0)
           (-20.0 0.0)
  end
  begin
     id 25 
     name rhumerus
     direction -1 -4.48964e-011 -1.70632e-027  
     length 4.61969   
     axis 180 30 90   XYZ
    dof rx ry rz
    limits (-90.0 60.0)
           (-90.0 90.0)
           (-90.0 90.0)
  end
  begin
     id 26 
     name rradius
     direction -1 -4.48966e-011 -6.60395e-027   
     length 3.09382   
     axis 180 30 90   XYZ
    dof rx
    limits (-10.0 170.0)
  end
  begin
     id 27 
     name rwrist
     direction -1 -4.48963e-011 -1.41363e-026   
     length 1.54691   
     axis 1.07133e-014 -90 -90   XYZ
    dof ry
    limits (-180.0 0.0)
  end
  begin
     id 28
     name rhand
     direction -1 -4.49013e-011 -2.82725e-026   
     length 0.500896   
     axis 1.80403e-014 -90 -90   XYZ
    dof rx rz
    limits (-90.0 90.0)
           (-45.0 45.0)
  end
  begin
     id 29
     name rfingers
     direction -1 -4.48902e-011 -5.6545e-026   
     length 0.403835   
     axis 3.60806e-014 -90 -90   XYZ
    dof rx
    limits (0.0 90.0)
  end
  begin
     id 30
     name rthumb
     direction -0.707107 -6.34953e-011 0.707107   
     length 0.579829   
     axis -90 -45 -2.85299e-015   XYZ
    dof rx rz
    limits (-45.0 45.0)
           (-45.0 45.0)
  end
:hierarchy
  begin
    root lhipjoint rhipjoint lowerback
    lhipjoint lfemur
    lfemur ltibia
    ltibia lfoot
    lfoot ltoes
    rhipjoint rfemur
    rfemur rtibia
    rtibia rfoot
    rfoot rtoes
    lowerback upperback
    upperback thorax
    thorax lowerneck lclavicle rclavicle
    lowerneck upperneck
    upperneck head
    lclavicle lhumerus
    lhumerus lradius
    lradius lwrist
    lwrist lhand lthumb
    lhand lfingers
    rclavicle rhumerus
    rhumerus rradius
    rradius rwrist
    rwrist rhand rthumb
    rhand rfingers
  end

#!OML:ASF E:\madness\Project 1\Capture day 1\Session 1\Female1.ASF
:FULLY-SPECIFIED
:DEGREES
731
root 18.6308 14.8703 4.21528 201.855 -35.7152 -184.126
lowerback 37.247 2.23869 0.643848
upperback 10.6413 0.942827 4.56106
thorax -6.70389 -0.651962 4.26273
lowerneck -8.50846 -4.21245 -3.41749
upperneck 5.46619 -5.12159 -5.57843
head 3.20618 -2.9485 -1.51394
rclavicle -1.74931e-014 1.90833e-014
rhumerus -31.9036 0.685376 -71.813
rradius 100.264
rwrist -7.36673
rhand -25.6074 -45.1818
rfingers 7.12502
rthumb 0.924935 -75.1596
lclavicle -1.74931e-014 1.90833e-014
lhumerus -48.5211 3.97235 89.8908
lradius 107.931
lwrist -25.2325
lhand -55.3215 -41.7574
lfingers 7.12502
lthumb -27.6877 -13.7755
rfemur -55.1664 12.8858 -12.1369
rtibia 54.0233
rfoot -12.2049 -14.1193
rtoes 15.1224
lfemur -51.7965 -16.7296 -11.6684
ltibia 54.0083
lfoot -18.4012 15.0028
ltoes -11.8087
732
root 18.7021 14.8678 4.15143 201.94 -36.5025 -184.245
lowerback 37.3315 2.34831 0.800953
upperback 10.6888 1.14049 4.49558
thorax -6.68441 -0.552014 4.03508
lowerneck -8.39376 -4.20526 -3.1965
upperneck 5.50175 -5.12604 -5.97623
head 3.18088 -2.96543 -1.68071
rclavicle 6.83819e-014 -6.83819e-014
rhumerus -31.5408 0.44451 -71.2776
rradius 101.606
rwrist -7.04128
rhand -24.9718 -43.6181
rfingers 7.12502
rthumb 1.53876 -73.5923
lclavicle 6.83819e-014 -6.83819e-014
lhumerus -48.4812 3.43566 89.9782
lradius 107.023
lwrist -25.2991
lhand -55.7874 -39.4598
lfingers 7.12502
lthumb -28.133 -11.5502
rfemur -54.316 13.5889 -12.9608
rtibia 52.504
rfoot -12.5084 -14.1568
rtoes 16.3532
lfemur -51.7748 -16.9418 -11.2352
ltibia 53.7274
lfoot -18.246 15.0977
ltoes -13.3381
733
root 18.7917 14.8651 4.09202 202.371 -37.3842 -184.253
lowerback 37.1891 2.49023 0.767117
upperback 10.5673 1.38095 4.52309
thorax -6.78802 -0.410602 3.99076
lowerneck -8.34673 -4.16479 -2.80135
upperneck 5.7375 -5.08333 -6.36553
head 3.23511 -2.95777 -1.88173
rclavicle -1.90833e-014 -2.78299e-014
rhumerus -31.1125 0.223295 -70.8928
rradius 102.83
rwrist -6.69511
rhand -25.1583 -43.8205
rfingers 7.12502
rthumb 1.35865 -73.7959
lclavicle -1.90833e-014 -2.78299e-014
lhumerus -48.5743 3.12652 89.9286
lradius 106.015
lwrist -24.9434
lhand -55.9409 -38.6709
lfingers 7.12502
lthumb -28.2797 -10.7856
rfemur -53.8982 14.0856 -13.7012
rtibia 51.0852
rfoot -12.7283 -13.9817
rtoes 17.5228
lfemur -52.3628 -17.086 -10.4471
ltibia 53.5619
lfoot -18.3969 14.7664
ltoes -12.8735
734
root 18.8877 14.8417 4.04966 203.692 -39.2603 -184.786
lowerback 36.5903 1.91931 1.01489
upperback 10.3277 0.89089 4.57072
thorax -6.80882 -0.583838 4.08874
lowerneck -8.51104 -3.83556 -2.4908
upperneck 5.96038 -4.62376 -6.86626
head 3.33815 -2.75481 -2.09287
rclavicle -1.90833e-014 4.6118e-014
rhumerus -30.8827 1.17309 -70.3835
rradius 104.712
rwrist -6.63559
rhand -26.1859 -44.8217
rfingers 7.12502
rthumb 0.366175 -74.8011
lclavicle -1.90833e-014 4.6118e-014
lhumerus -48.6154 3.58703 89.653
lradius 104.857
lwrist -24.4144
lhand -55.8387 -40.8981
lfingers 7.12502
lthumb -28.1821 -12.9967
rfemur -53.4653 13.4972 -14.4677
rtibia 49.7668
rfoot -12.6455 -14.1552
rtoes 17.4476
lfemur -54.0492 -17.7813 -9.46279
ltibia 53.4721
lfoot -18.9988 13.5211
ltoes -10.4038
735
root 18.9955 14.8191 3.98426 204.303 -39.9585 -184.87
lowerback 36.445 2.15801 0.474178
upperback 10.2824 1.05029 4.6041
thorax -6.8395 -0.492046 4.3485
lowerneck -8.76056 -3.54798 -2.20952
upperneck 6.14199 -4.2182 -7.24173
head 3.44963 -2.5729 -2.26272
rclavicle 3.97569e-014 -8.90555e-014
rhumerus -30.3005 1.29327 -69.974
rradius 106.104
rwrist -6.3336
rhand -24.9489 -43.3814
rfingers 7.12502
rthumb 1.56089 -73.3554
lclavicle 3.97569e-014 -8.90555e-014
lhumerus -48.4736 3.94719 89.3208
lradius 103.65
lwrist -24.2698
lhand -55.6063 -42.4835
lfingers 7.12502
lthumb -27.9599 -14.5456
rfemur -53.4242 14.068 -15.2709
rtibia 48.5331
rfoot -12.3026 -14.3043
rtoes 16.6892
lfemur -54.8892 -17.4722 -8.75327
ltibia 53.5149
lfoot -19.9442 12.3275
ltoes -7.8966
736
root 19.0219 14.8181 3.89687 203.783 -41.2082 -185.054
lowerback 36.8582 1.81391 1.29971
upperback 10.5596 0.821102 4.43167
thorax -6.62633 -0.621288 3.81391
lowerneck -8.98617 -3.40144 -1.88712
upperneck 6.41287 -4.00998 -7.43404
head 3.58662 -2.4785 -2.39124
rclavicle -3.49861e-014 1.51076e-014
rhumerus -29.7456 1.118 -69.5149
rradius 107.352
rwrist -6.04988
rhand -24.3618 -42.8064
rfingers 7.12502
rthumb 2.12794 -72.7755
lclavicle -3.49861e-014 1.51076e-014
lhumerus -48.4177 4.01411 89.068
lradius 102.45
lwrist -24.2118
lhand -55.6745 -42.1517
lfingers 7.12502
lthumb -28.0251 -14.2245
rfemur -51.589 14.9719 -15.5114
rtibia 47.5765
rfoot -12.6444 -14.2207
rtoes 15.6213
lfemur -54.3243 -18.6895 -8.17296
ltibia 53.5446
lfoot -20.4537 11.9214
ltoes -6.03845
737
root 19.1152 14.7883 3.82276 204.409 -42.1202 -185.167
lowerback 36.4997 1.81198 1.33301
upperback 10.519 0.875218 4.30791
thorax -6.54519 -0.565667 3.63944
lowerneck -9.00374 -3.05367 -1.53126
upperneck 6.44213 -3.54528 -7.91727
head 3.60555 -2.26321 -2.59702
rclavicle -1.59028e-015 -6.04305e-014
rhumerus -29.2996 1.15679 -69.1317
rradius 108.677
rwrist -5.94678
rhand -24.5063 -42.9162
rfingers 7.12502
rthumb 1.98836 -72.8866
lclavicle -1.59028e-015 -6.04305e-014
lhumerus -48.4854 3.93729 88.5889
lradius 101.214
lwrist -23.9667
lhand -55.7706 -42.011
lfingers 7.12502
lthumb -28.1169 -14.0988
rfemur -51.4722 15.3368 -16.0331
rtibia 46.859
rfoot -12.9293 -13.7993
rtoes 13.0237
lfemur -55.2145 -18.7944 -7.28256
ltibia 53.6718
lfoot -20.6449 11.5768
ltoes -6.24307
738
root 19.2615 14.732 3.76241 206.797 -44.3958 -186.181
lowerback 35.3364 1.15922 1.41079
upperback 10.1662 0.286831 4.35213
thorax -6.62339 -0.75202 3.82648
lowerneck -8.90387 -2.75735 -1.26067
upperneck 6.43719 -3.15702 -8.1548
head 3.59398 -2.07029 -2.7032
rclavicle 7.79236e-014 -7.15625e-015
rhumerus -28.6917 1.40456 -69.0988
rradius 109.823
rwrist -5.8847
rhand -24.8631 -43.4824
rfingers 7.12502
rthumb 1.64374 -73.4558
lclavicle 7.79236e-014 -7.15625e-015
lhumerus -48.645 4.09219 87.7879
lradius 100.147
lwrist -23.6238
lhand -55.0618 -41.5757
lfingers 7.12502
lthumb -27.4392 -13.5542
rfemur -51.516 14.0795 -16.5406
rtibia 46.0444
rfoot -13.6812 -13.4394
rtoes 7.19796
lfemur -57.8786 -18.6581 -6.48357
ltibia 53.6142
lfoot -20.3528 11.4716
ltoes -12.3606
739
root 19.3947 14.7149 3.66373 207.319 -44.5491 -185.948
lowerback 35.005 1.83632 0.270542
upperback 10.1265 0.802279 4.38769
thorax -6.61552 -0.493726 4.28062
lowerneck -8.83017 -2.56341 -0.883926
upperneck 6.40843 -2.9227 -8.30619
head 3.57403 -1.94455 -2.80809
rclavicle -5.56597e-014 1.43125e-014
rhumerus -28.0584 1.55128 -69.2284
rradius 110.882
rwrist -5.75238
rhand -24.3556 -42.8405
rfingers 7.12502
rthumb 2.13389 -72.8096
lclavicle -5.56597e-014 1.43125e-014
lhumerus -48.7818 4.36958 87.0644
lradius 99.3018
lwrist -23.3962
lhand -61.5115 -33.2873
lfingers 7.12502
lthumb -33.5895 -6.41339
rfemur -51.9413 14.7139 -16.7164
rtibia 45.3265
rfoot -14.9757 -12.6979
rtoes -0.847625
lfemur -58.4948 -17.4941 -5.95989
ltibia 53.5558
lfoot -20.1431 12.2248
ltoes -16.6726
740
root 19.3594 14.7722 3.54243 204.327 -44.7235 -185.441
lowerback 37.0196 1.99622 1.3039
upperback 10.8378 1.03998 4.00706
thorax -6.37152 -0.492441 3.27247
lowerneck -8.92563 -2.30465 -0.914944
upperneck 6.54265 -2.54225 -8.3897
head 3.65733 -1.76437 -2.81819
rclavicle -2.54444e-014 1.82882e-014
rhumerus -27.8447 1.08859 -68.6018
rradius 112.04
rwrist -5.34452
rhand -24.1082 -42.5923
rfingers 7.12502
rthumb 2.37291 -72.5589
lclavicle -2.54444e-014 1.82882e-014
lhumerus -48.8331 4.30472 86.64
lradius 98.4183
lwrist -23.4388
lhand -54.2873 -42.2966
lfingers 7.12502
lthumb -26.6983 -14.1598
rfemur -48.2748 16.7934 -15.578
rtibia 44.2836
rfoot -16.9956 -12.1231
rtoes -6.3298
lfemur -55.1072 -20.063 -5.49691
ltibia 53.2269
lfoot -18.6327 14.9358
ltoes -18.082
